<?xml version="1.0" encoding="UTF-8" standalone="no"?>
<!-- Created with Inkscape (http://www.inkscape.org/) -->

<svg
   xmlns:dc="http://purl.org/dc/elements/1.1/"
   xmlns:cc="http://creativecommons.org/ns#"
   xmlns:rdf="http://www.w3.org/1999/02/22-rdf-syntax-ns#"
   xmlns:svg="http://www.w3.org/2000/svg"
   xmlns="http://www.w3.org/2000/svg"
   xmlns:sodipodi="http://sodipodi.sourceforge.net/DTD/sodipodi-0.dtd"
   xmlns:inkscape="http://www.inkscape.org/namespaces/inkscape"
   id="svg2"
   version="1.1"
   inkscape:version="0.91 r13725"
   xml:space="preserve"
   width="277.875"
   height="212.35001"
   viewBox="0 0 277.875 212.35001"
   sodipodi:docname="wing-logo-blue.svg"><metadata
     id="metadata8"><rdf:RDF><cc:Work
         rdf:about=""><dc:format>image/svg+xml</dc:format><dc:type
           rdf:resource="http://purl.org/dc/dcmitype/StillImage" /><dc:title></dc:title></cc:Work></rdf:RDF></metadata><defs
     id="defs6" /><sodipodi:namedview
     pagecolor="#ffffff"
     bordercolor="#666666"
     borderopacity="1"
     objecttolerance="10"
     gridtolerance="10"
     guidetolerance="10"
     inkscape:pageopacity="0"
     inkscape:pageshadow="2"
     inkscape:window-width="1276"
     inkscape:window-height="689"
     id="namedview4"
     showgrid="false"
     inkscape:zoom="1.1113727"
     inkscape:cx="20.615358"
     inkscape:cy="106.175"
     inkscape:window-x="0"
     inkscape:window-y="27"
     inkscape:window-maximized="0"
     inkscape:current-layer="g10" /><g
     id="g10"
     inkscape:groupmode="layer"
     inkscape:label="ink_ext_XXXXXX"
     transform="matrix(1.25,0,0,-1.25,0,212.35)"><g
       id="g12"
       transform="scale(0.1,0.1)"
       style="fill:#192730;fill-opacity:1"><path
         d="m 443.652,1167.55 c -6.418,-14.69 -8.605,-29.84 -11.113,-44.87 -11.84,-70.96 -23.035,-142.032 -35.109,-212.953 -11.27,-66.207 -24.032,-132.129 -42.95,-196.676 -8.507,-29.02 -18.382,-57.563 -31.511,-84.891 -7.496,-15.609 -15.992,-30.621 -26.668,-44.308 -7.711,-9.883 -16.371,-18.813 -26.824,-25.883 -16.2,-10.957 -33.946,-15.039 -53.36,-12.668 -25.59,3.121 -47.754,13.648 -67.187,30.308 -15.805,13.551 -28.719,29.563 -39.973,46.993 -19.3828,30.027 -33.3906,62.578 -45.0507,96.207 -15.2735,44.05 -26.1407,89.261 -34.625,135.054 -11.9024,64.227 -19.168,129.012 -23.85942,194.157 -5.3476612,74.29 -6.50001,148.64 -4.507817,223.03 1.593747,59.5 5.703127,118.9 14.468737,177.81 3.5899,24.16 9.0703,48.05 14.0039,72 1.9453,9.44 5.6446,18.32 11.3828,26.23 5.4219,7.46 12.3125,12.08 21.9727,10.99 7.6172,-0.86 15.2851,-1.51 22.8008,-2.92 25.641,-4.82 49.996,-13.36 72.703,-26.32 10.902,-6.22 20.926,-13.6 29.059,-23.29 8.734,-10.42 12.465,-22.09 11.222,-35.95 -2.914,-32.49 -5.707,-65.02 -7.324,-97.6 -4.359,-87.73 -7.305,-175.52 -5.648,-263.37 0.941,-49.89 2.758,-99.79 5.55,-149.618 2.715,-48.379 7.633,-96.61 16.528,-144.332 4.75,-25.492 10.207,-50.844 20.152,-74.883 4.192,-10.137 9.504,-19.895 15.16,-29.313 4.461,-7.433 10.77,-13.496 18.766,-17.425 12.012,-5.911 21.309,-4.618 29.387,5.921 6.074,7.922 11.195,16.762 15.558,25.766 10.699,22.074 17.949,45.477 24.84,68.957 14.871,50.656 26.492,102.113 37.27,153.758 19.394,92.969 36.047,186.459 52.468,279.989 4.149,23.62 8.86,47.14 12.86,70.78 1.511,8.94 2.429,18.09 2.469,27.15 0.23,51.36 0.578,102.72 -0.192,154.07 -0.211,14.12 5.785,23.78 15.149,32.51 10.16,9.46 21.785,16.19 36.289,14.11 31.902,-4.57 63.246,-11.4 92.57,-25.45 9.562,-4.58 18.519,-10.1 26.418,-17.26 12.066,-10.93 18.363,-24.31 17.687,-40.8 -1.004,-24.45 -1.757,-48.92 -2.847,-73.37 -1.196,-26.85 -2.86,-53.68 -3.957,-80.53 -4.762,-116.53 -8.875,-233.1 -6.114,-349.762 1.02,-43.171 3.106,-86.339 8.399,-129.25 2.875,-23.324 6.223,-46.621 13.598,-69.066 2.238,-6.812 5,-13.48 7.949,-20.023 1.554,-3.457 3.746,-6.731 6.136,-9.696 9.348,-11.601 19.625,-13.304 31.168,-4.14 6.692,5.308 12.61,11.816 17.989,18.492 10.57,13.121 18.789,27.816 26.496,42.758 20.297,39.355 35.648,80.695 48.617,122.937 18.758,61.094 32.004,123.4 41.426,186.62 13.636,91.49 17.492,183.42 12.703,275.65 -4.992,96.14 -21.059,190.62 -46.067,283.57 -0.996,3.7 -1.875,7.44 -2.628,11.19 -0.164,0.83 0.433,1.81 0.761,3.04 0.981,0.64 2.063,1.63 3.336,2.15 31.977,13.03 63.903,26.24 97.012,36.16 12.359,3.71 25.16,6.05 37.871,8.41 8.984,1.68 18.074,1.41 27.176,-0.41 14.562,-2.93 25.359,-10.9 33.129,-23.29 5.402,-8.61 8.883,-18.04 11.511,-27.81 4.895,-18.16 7.305,-36.75 8.184,-55.44 2.422,-51.36 0.828,-102.63 -4.25,-153.84 -14.469,-145.84 -48.684,-287.28 -94.676,-426.09 -27.035,-81.593 -58.699,-161.34 -97.308,-238.222 -16.157,-32.18 -33.653,-63.61 -53.508,-93.676 -13.774,-20.863 -28.531,-40.961 -45.75,-59.152 -11.586,-12.239 -24.051,-23.418 -38.781,-31.879 -18.739,-10.762 -38.075,-11.801 -58.141,-4.153 -9.539,3.641 -18.422,8.524 -25.762,15.461 -7.98,7.563 -15.636,15.602 -22.457,24.199 -11.988,15.122 -20.75,32.243 -28.597,49.813 -16.707,37.383 -27.957,76.523 -37.184,116.297 -11.719,50.512 -19.898,101.633 -26.383,153.066 -8.051,63.816 -13.715,127.836 -17.379,192.056 -0.629,10.98 -1.66,21.95 -2.504,32.92"
         style="fill:#192730;fill-opacity:1;fill-rule:nonzero;stroke:none"
         id="path14"
         inkscape:connector-curvature="0" /><path
         d="m 2071.43,771.348 c -3.96,-9.246 -7.83,-18.535 -11.91,-27.739 -11.28,-25.496 -24.29,-50.058 -40.28,-72.961 -11.58,-16.589 -24.47,-32.046 -40.41,-44.687 -11.01,-8.731 -22.89,-15.871 -36.84,-18.789 -24.16,-5.063 -46.71,0.199 -68.05,11.5 -19.18,10.16 -33.25,25.738 -44.54,43.988 -12.51,20.211 -20.8,42.207 -25.76,65.281 -3.93,18.258 -6.61,36.813 -9.14,55.332 -1.1,8.016 -0.44,16.274 -0.61,24.418 -1.24,57.36 3.57,114.082 18.05,169.766 10.45,40.173 25.63,78.363 47.99,113.513 17.41,27.37 38.39,51.54 64.3,71.21 24.84,18.84 52.26,32.21 83.21,37.3 19.59,3.22 39.3,3.18 58.51,-2.41 35.15,-10.22 59.14,-32.59 71.36,-67.26 4.51,-12.78 6.53,-26.03 6.66,-39.56 0.02,-1.83 -0.61,-3.67 -1.08,-6.34 -4.1,1.34 -7.68,2.41 -11.18,3.68 -35.34,12.78 -69.67,10.43 -103.08,-6.68 -19.02,-9.73 -35.39,-22.93 -50.17,-38.19 -16.45,-16.96 -30.43,-35.83 -42.59,-56.048 -30.27,-50.32 -50.18,-104.543 -59.81,-162.414 -5.87,-35.32 -5.89,-70.75 2.2,-105.832 1.92,-8.352 4.95,-16.528 8.28,-24.446 2.01,-4.769 5.17,-9.218 8.53,-13.218 5.96,-7.102 13.85,-9.864 23.16,-8.75 13.65,1.629 25.99,6.488 37.18,14.386 9.86,6.981 18.41,15.356 26.12,24.622 13.89,16.703 24.92,35.23 34.59,54.589 18.5,37.039 32.11,75.942 43.47,115.661 15.72,54.957 27.56,110.734 34.84,167.45 0.3,2.29 1.16,4.5 1.74,6.67 1.96,0.37 3.37,0.97 4.72,0.84 24.37,-2.19 48.74,-4.67 72.33,-11.58 8.69,-2.55 17.21,-6.04 25.31,-10.09 5.47,-2.74 10.64,-6.66 14.94,-11.04 8.68,-8.84 11.39,-19.68 8.36,-31.864 -4.51,-18.144 -9.14,-36.269 -13.34,-54.488 -9.7,-42.094 -17.09,-84.633 -22.44,-127.477 -6.83,-54.734 -13.22,-109.531 -19.26,-164.359 -4.63,-41.961 -8.06,-84.051 -12.64,-126.023 -7.71,-70.579 -16.36,-141.047 -31.36,-210.547 -10.24,-47.43 -23.23,-94.032 -42.97,-138.532 -11.71,-26.41 -25.7,-51.492 -43.35,-74.4409 C 1994.13,40.7383 1938.38,9.62891 1869.39,2.33203 1857.95,1.12109 1846.44,0.398438 1834.95,0.0585938 1806.48,-0.761719 1779.58,5.94922 1754.8,19.6484 1694.12,53.2109 1656.83,104.34 1642.94,172.27 c -1.81,8.859 -1.71,18.128 -2.33,27.218 -0.16,2.371 0.17,4.793 0.5,7.16 1.4,10.043 5.51,15 12.37,15.122 7.47,0.128 16.09,-6.641 17.8,-14.258 0.73,-3.262 0.87,-6.66 1.3,-9.992 4.26,-33.301 17.71,-62.661 39.24,-88.129 7.06,-8.352 15.47,-15.809 24.23,-22.3793 14.99,-11.2304 32.22,-16.4219 51.16,-16.3398 44.33,0.1992 83.84,13.8672 118.52,41.4761 21.63,17.223 39.16,38.082 54.25,61.114 21.97,33.539 37.78,70 50.61,107.828 15.59,45.992 26.36,93.18 34.54,140.992 10.44,61.059 17.23,122.547 20.79,184.379 2.96,51.258 5.5,102.543 8.18,153.816 0.19,3.625 0.03,7.27 0.03,10.907 -0.9,0.054 -1.8,0.109 -2.7,0.164"
         style="fill:#192730;fill-opacity:1;fill-rule:nonzero;stroke:none"
         id="path16"
         inkscape:connector-curvature="0" /><path
         d="m 1485.6,861.039 c 2.18,4.633 4.53,9.195 6.51,13.918 17.4,41.586 34.48,83.301 52.16,124.77 14.29,33.543 30.03,66.433 48.29,98.043 11.77,20.4 24.53,40.13 39.58,58.28 5.2,6.27 10.63,12.39 16.32,18.22 10.57,10.84 15.99,11.98 29.4,6 14.58,-6.51 27.62,-15.42 39.07,-26.59 1.71,-1.67 3.3,-3.48 4.83,-5.33 5.31,-6.41 6.91,-13.13 3.31,-21.27 -14.4,-32.65 -23.05,-67.05 -29.82,-101.95 -6.32,-32.517 -10.47,-65.325 -13.33,-98.333 -2.9,-33.527 -3.85,-67.078 -2.45,-100.672 1.03,-24.508 4.67,-48.691 11.59,-72.285 3.11,-10.613 6.99,-20.953 13.29,-30.164 11.47,-16.742 24.93,-18.059 39.46,-3.903 7.65,7.454 13.57,16.262 18.25,25.719 6.38,12.875 11.93,26.164 17.92,39.238 1.18,2.571 2.35,5.317 4.23,7.321 0.96,1.023 3.57,1.004 5.27,0.664 1.05,-0.211 2.26,-1.797 2.56,-2.981 0.47,-1.8 0.36,-3.8 0.24,-5.699 -2.2,-34.738 -12.48,-66.82 -32.24,-95.594 -4.31,-6.281 -9.45,-12.132 -14.9,-17.48 -20.15,-19.789 -43.74,-24.32 -70.28,-15.09 -13.47,4.688 -24.66,12.68 -34.38,22.918 -10,10.531 -17.71,22.645 -24.19,35.578 -12.56,25.059 -20.36,51.719 -26.04,79.028 -9.41,45.238 -13.46,91.062 -14.54,137.195 -0.12,5.07 0.49,10.277 -1.28,17.07 -3.17,-3.015 -5.32,-4.629 -6.93,-6.668 -10.47,-13.23 -18.79,-27.801 -26.3,-42.855 -15.46,-30.996 -27.53,-63.379 -37.22,-96.532 -14.13,-48.316 -27.1,-96.964 -40.69,-145.433 -4.65,-16.621 -9.51,-33.192 -14.58,-49.692 -3.23,-10.519 -7.78,-14.16 -18.78,-14.218 -6.12,-0.043 -12.53,0.828 -18.33,2.726 -16.24,5.313 -29.88,15.012 -42.19,26.731 -3.83,3.652 -5.03,7.793 -4.53,12.941 1.65,16.711 3.06,33.442 4.59,50.16 2.44,26.754 5.12,53.493 7.31,80.266 3.79,46.383 7.55,92.769 10.84,139.187 3.35,47.383 7.27,94.743 7.46,142.287 0.03,8.11 -0.36,16.23 -0.55,23.69 -3.85,2.32 -5.59,0.66 -6.48,-1.69 -2.86,-7.61 -6.09,-15.16 -8.1,-23.01 -8.9,-34.84 -17.38,-69.788 -26.09,-104.679 -14.4,-57.723 -30.23,-115.019 -51.82,-170.555 -10.61,-27.304 -22.66,-53.941 -37.56,-79.226 -8.55,-14.488 -18.04,-28.328 -29.08,-41.059 -11.08,-12.769 -23.41,-24.133 -38.34,-32.293 -18.12,-9.906 -37.26,-14.816 -58.13,-11.386 -17.89,2.937 -32.3,11.597 -44.01,25.136 -8.88,10.282 -15.28,22.043 -20.38,34.551 -9.13,22.383 -14.14,45.801 -17.13,69.66 -4.95,39.614 -5.7,79.364 -4.08,119.258 1.72,42.223 4.9,84.305 10.05,126.223 5.2,42.37 11.28,84.65 22.85,125.86 2.84,10.1 7.02,19.85 10.98,29.6 2.82,6.95 8.19,9.7 15.96,9.57 23.12,-0.39 45.87,3.07 68.49,7.67 4.62,0.94 9.58,1.16 14.24,0.57 6.58,-0.83 10.13,-5.55 9.13,-12.28 -2.2,-14.7 -4.94,-29.32 -7.51,-43.96 -10.89,-61.87 -22.52,-123.616 -32.5,-185.628 -9.86,-61.203 -14.3,-122.945 -13,-184.988 0.21,-10.012 1.63,-20.059 3.29,-29.953 0.85,-5.09 2.94,-10.161 5.38,-14.77 4.83,-9.152 11.22,-12.039 21.39,-10.672 12.21,1.641 22.95,6.672 32.57,14.231 9.12,7.172 16.82,15.699 23.7,24.992 10.32,13.93 18.76,28.976 26.31,44.543 15.11,31.148 27.26,63.496 37.12,96.598 15.06,50.539 29.25,101.339 43.53,152.107 10.65,37.89 22.89,75.24 37.62,111.74 4.12,10.2 8.99,20.13 13.96,29.97 2.36,4.67 5.58,8.94 8.72,13.16 3.58,4.82 8.34,7.92 14.55,8.21 13.21,0.59 25.17,5.46 37.14,10.55 16.21,6.88 18.86,5.86 21.4,-12.05 2.48,-17.53 3.97,-35.31 4.27,-53.01 0.67,-39.82 0.51,-79.66 0.37,-119.486 -0.15,-41.27 -0.69,-82.539 -1.01,-123.805 -0.03,-2.804 0.33,-5.609 0.52,-8.414 0.92,-0.164 1.83,-0.332 2.75,-0.496"
         style="fill:#192730;fill-opacity:1;fill-rule:nonzero;stroke:none"
         id="path18"
         inkscape:connector-curvature="0" /><path
         d="m 1314.95,1366.46 c 17.26,-0.8 58.26,1.4 105.8,4.5 -37.14,-65.3 -139.89,-112.19 -211.6,-112.19 -77.14,0 -139.57,45.81 -139.57,102.43 0,85.64 65.95,128.85 139.57,154.94 88.35,35.61 122.78,58.26 245.56,116.52 10.69,-67.71 -46.61,-133.01 -93.99,-162.3 25.93,0 55.22,21.13 116.68,36.97 -3.84,-70.44 -99.39,-130.12 -162.45,-140.87"
         style="fill:#192730;fill-opacity:1;fill-rule:nonzero;stroke:none"
         id="path20"
         inkscape:connector-curvature="0" /></g></g></svg>